<svg version="1.1" id="burger-close" class="icon" xmlns="http://www.w3.org/2000/svg" xmlns:xlink="http://www.w3.org/1999/xlink" x="0px" y="0px"
	 width="100px" height="100px" viewBox="0 0 100 100" enable-background="new 0 0 100 100" xml:space="preserve">
<g>

	<path fill="#E56645" d="M50,0C22.387,0,0,22.387,0,50s22.387,50,50,50s50-22.387,50-50S77.613,0,50,0z M75.967,17.881L50,43.85L24.033,17.882
		C31.127,12.138,40.161,8.695,50,8.695S68.873,12.138,75.967,17.881z M8.695,50c0-9.839,3.442-18.873,9.186-25.967L43.85,50
		L17.881,75.967C12.138,68.873,8.695,59.838,8.695,50z M24.034,82.119L50,56.15l25.967,25.969
		C68.872,87.862,59.838,91.305,50,91.305C40.162,91.305,31.128,87.862,24.034,82.119z M82.119,75.967L56.15,50l25.968-25.967
		c5.743,7.094,9.187,16.128,9.187,25.967C91.305,59.838,87.862,68.872,82.119,75.967z"/>
</g>
</svg>